<?xml version="1.0" encoding="UTF-8" standalone="no"?>
<!-- Created with Inkscape (http://www.inkscape.org/) -->

<svg
   width="1450"
   height="1450"
   viewBox="0 0 383.64583 383.64584"
   version="1.1"
   id="svg5"
   sodipodi:docname="arcaflow.svg"
   inkscape:version="1.2 (dc2aedaf03, 2022-05-15)"
   inkscape:export-filename="arcaflow.png"
   inkscape:export-xdpi="16.948965"
   inkscape:export-ydpi="16.948965"
   xml:space="preserve"
   xmlns:inkscape="http://www.inkscape.org/namespaces/inkscape"
   xmlns:sodipodi="http://sodipodi.sourceforge.net/DTD/sodipodi-0.dtd"
   xmlns:xlink="http://www.w3.org/1999/xlink"
   xmlns="http://www.w3.org/2000/svg"
   xmlns:svg="http://www.w3.org/2000/svg"><sodipodi:namedview
     id="namedview7"
     pagecolor="#ffffff"
     bordercolor="#000000"
     borderopacity="0.25"
     inkscape:showpageshadow="2"
     inkscape:pageopacity="0.0"
     inkscape:pagecheckerboard="0"
     inkscape:deskcolor="#d1d1d1"
     inkscape:document-units="mm"
     showgrid="false"
     inkscape:zoom="0.81386661"
     inkscape:cx="53.448562"
     inkscape:cy="927.67044"
     inkscape:window-width="3197"
     inkscape:window-height="2054"
     inkscape:window-x="0"
     inkscape:window-y="0"
     inkscape:window-maximized="0"
     inkscape:current-layer="layer1" /><defs
     id="defs2"><linearGradient
       inkscape:collect="always"
       id="linearGradient8836"><stop
         style="stop-color:#008000;stop-opacity:1;"
         offset="0"
         id="stop8832" /><stop
         style="stop-color:#69ff69;stop-opacity:1;"
         offset="1"
         id="stop8834" /></linearGradient><linearGradient
       inkscape:collect="always"
       id="linearGradient7273"><stop
         style="stop-color:#a0a0a0;stop-opacity:1;"
         offset="0"
         id="stop7269" /><stop
         style="stop-color:#6c6c6c;stop-opacity:1;"
         offset="1"
         id="stop7271" /></linearGradient><linearGradient
       inkscape:collect="always"
       id="linearGradient1404"><stop
         style="stop-color:#f1ff19;stop-opacity:1;"
         offset="0"
         id="stop1400" /><stop
         style="stop-color:#e33600;stop-opacity:1;"
         offset="1"
         id="stop1402" /></linearGradient><radialGradient
       inkscape:collect="always"
       xlink:href="#linearGradient1404"
       id="radialGradient1406-8"
       cx="872.76624"
       cy="2218.0591"
       fx="872.76624"
       fy="2218.0591"
       r="850.03741"
       gradientTransform="matrix(0.15228627,0,0,0.09159318,-1.0802267,-107.5004)"
       gradientUnits="userSpaceOnUse" /><linearGradient
       id="linearGradient6216"
       inkscape:swatch="solid"><stop
         style="stop-color:#000000;stop-opacity:1;"
         offset="0"
         id="stop6214" /></linearGradient><linearGradient
       id="linearGradient6049"
       inkscape:swatch="solid"><stop
         style="stop-color:#b5c6e5;stop-opacity:1;"
         offset="0"
         id="stop6047" /></linearGradient><linearGradient
       id="linearGradient4513"
       inkscape:swatch="solid"><stop
         style="stop-color:#0b0b0b;stop-opacity:1;"
         offset="0"
         id="stop4511" /></linearGradient><linearGradient
       id="linearGradient4507"
       inkscape:swatch="solid"><stop
         style="stop-color:#5687e3;stop-opacity:1;"
         offset="0"
         id="stop4505" /></linearGradient><linearGradient
       inkscape:collect="always"
       xlink:href="#linearGradient6049"
       id="linearGradient6218"
       x1="60.014744"
       y1="77.255188"
       x2="66.828262"
       y2="77.255188"
       gradientUnits="userSpaceOnUse"
       gradientTransform="translate(14.570396,-19.653092)" /><linearGradient
       inkscape:collect="always"
       xlink:href="#linearGradient6049"
       id="linearGradient6218-4"
       x1="60.014744"
       y1="77.255188"
       x2="66.828262"
       y2="77.255188"
       gradientUnits="userSpaceOnUse"
       gradientTransform="matrix(0.65712274,-0.21118961,0,0.81921061,36.565164,17.757602)" /><linearGradient
       inkscape:collect="always"
       xlink:href="#linearGradient6049"
       id="linearGradient6218-8"
       x1="60.014744"
       y1="77.255188"
       x2="66.828262"
       y2="77.255188"
       gradientUnits="userSpaceOnUse"
       gradientTransform="matrix(0.4570379,-0.48333316,0.52297938,0.4223906,-1.6526523,48.659029)" /><radialGradient
       inkscape:collect="always"
       xlink:href="#linearGradient1404"
       id="radialGradient3398-6"
       gradientUnits="userSpaceOnUse"
       gradientTransform="matrix(0.34156567,0,0,0.21738297,-433.93044,-184.56318)"
       cx="1802.4834"
       cy="1611.1213"
       fx="1802.4834"
       fy="1611.1213"
       r="850.03741" /><linearGradient
       inkscape:collect="always"
       xlink:href="#linearGradient7273"
       id="linearGradient7275"
       x1="318.66766"
       y1="77.844376"
       x2="311.36893"
       y2="207.34546"
       gradientUnits="userSpaceOnUse"
       gradientTransform="translate(-108.63762,21.511791)" /><radialGradient
       inkscape:collect="always"
       xlink:href="#linearGradient8836"
       id="radialGradient8840"
       cx="247.032"
       cy="216.63419"
       fx="247.032"
       fy="216.63419"
       r="39.536022"
       gradientTransform="matrix(-1.2092589,1.4229104,-2.7180816,-2.2350593,1121.2398,338.87934)"
       gradientUnits="userSpaceOnUse" /><radialGradient
       inkscape:collect="always"
       xlink:href="#linearGradient8836"
       id="radialGradient8840-8"
       cx="249.17233"
       cy="214.43416"
       fx="249.17233"
       fy="214.43416"
       r="39.536022"
       gradientTransform="matrix(-2.7847752,1.2551305,-1.5323777,-2.5859426,1141.4365,329.65585)"
       gradientUnits="userSpaceOnUse" /><radialGradient
       inkscape:collect="always"
       xlink:href="#linearGradient8836"
       id="radialGradient8840-8-7"
       cx="248.80571"
       cy="215.95444"
       fx="248.80571"
       fy="215.95444"
       r="39.536022"
       gradientTransform="matrix(2.2604515,2.7555774,1.5118039,-1.3884117,-810.67704,-179.52199)"
       gradientUnits="userSpaceOnUse" /></defs><g
     inkscape:label="Layer 1"
     inkscape:groupmode="layer"
     id="layer1"
     transform="translate(32.03241,12.911407)"><ellipse
       style="font-variation-settings:normal;fill:url(#radialGradient3398-6);fill-opacity:1;fill-rule:nonzero;stroke:#000000;stroke-width:5.58609;stroke-linecap:butt;stroke-linejoin:miter;stroke-miterlimit:10.43;stroke-dasharray:none;stroke-dashoffset:0;stroke-opacity:1;paint-order:stroke fill markers;stop-color:#000000"
       id="path3364-7"
       cx="160.08421"
       cy="179.20523"
       rx="187.20694"
       ry="187.20695" /><ellipse
       style="fill:#008000;stroke-width:0.312151;stroke-miterlimit:10.43;paint-order:stroke fill markers;stop-color:#000000"
       id="path1066"
       cx="141.19168"
       cy="218.76508"
       rx="44.076321"
       ry="39.190033" /><ellipse
       style="font-variation-settings:normal;opacity:1;fill:#008000;fill-opacity:1;fill-rule:nonzero;stroke:#000000;stroke-width:5;stroke-linecap:butt;stroke-linejoin:miter;stroke-miterlimit:10.43;stroke-dasharray:none;stroke-dashoffset:0;stroke-opacity:1;paint-order:stroke fill markers;stop-color:#000000;stop-opacity:1"
       id="path3364"
       cx="159.63838"
       cy="178.46393"
       rx="170.48178"
       ry="164.69801" /><path
       id="path3364-74"
       style="fill:url(#linearGradient7275);stroke:#000000;stroke-width:5;stroke-miterlimit:10.43;paint-order:stroke fill markers;stop-color:#000000"
       d="m 330.06176,178.45042 c 1e-5,90.9602 -49.89412,-41.88253 -130.54864,-36.48253 -11.9547,-13.6824 -56.5479,-8.21887 -80.1282,3.94723 -41.340779,21.32951 -71.48388,60.40046 -130.286731,32.5353 5e-6,-90.960193 76.327297,-164.698006 170.481791,-164.698003 94.15449,0 170.48177,73.737812 170.48178,164.698003 z"
       sodipodi:nodetypes="scscss" /><path
       id="path3364-5"
       style="font-variation-settings:normal;opacity:1;fill:#07719c;fill-opacity:1;stroke:#000000;stroke-width:5;stroke-linecap:butt;stroke-linejoin:miter;stroke-miterlimit:10.43;stroke-dasharray:none;stroke-dashoffset:0;stroke-opacity:1;paint-order:stroke fill markers;stop-color:#000000;stop-opacity:1"
       d="M 258.06698,40.009076 C 257.0352,22.865352 205.17365,12.504399 202.08042,17.505157 c -7.85833,12.704376 -26.97333,8.930061 -21.25706,110.478393 0.47562,8.44931 -14.16732,7.75004 -21.3269,9.53761 -5.21027,1.30087 -5.26616,13.10568 -3.03661,21.30484 16.77465,61.68879 -107.444113,15.75244 -74.900731,61.14946 57.820081,80.65729 21.437121,106.58636 26.154861,118.83508 44.27947,25.85538 98.00569,9.936 110.98354,0.58257 18.6377,-22.89467 -51.58688,-59.3162 -40.04367,-88.59271 11.34315,-28.76909 98.20997,-47.20262 59.477,-97.33405 -3.02015,-4.47916 -14.30464,-5.62033 -14.49145,-7.25646 -9.64276,-84.454547 -1.42116,-95.526226 34.42758,-106.200814 z"
       sodipodi:nodetypes="csssssccscsc" /><path
       id="rect7593"
       style="opacity:1;fill:#552200;stroke:#000000;stroke-width:5;stroke-miterlimit:10.43;stroke-dasharray:none;paint-order:stroke fill markers;stop-color:#000000;stop-opacity:1"
       d="m 217.43457,215.52592 h 32.70735 c -5.85422,19.44902 -4.05757,35.9125 0,55.05155 -8.54133,-6.24272 -11.76572,1.57105 -31.90984,0 27.03808,-11.47672 5.46826,-35.10811 -0.79751,-55.05155 z"
       sodipodi:nodetypes="ccccc" /><path
       id="path7834"
       style="opacity:1;fill:url(#radialGradient8840);stroke:#000000;stroke-width:5;stroke-miterlimit:10.43;paint-order:stroke fill markers;stop-color:#000000;stop-opacity:1;stroke-dasharray:none"
       d="m 270.62023,206.32207 c -2.07435,5.05777 13.37572,5.9603 5.18674,15.53639 -10.26793,12.00721 -15.47832,1.46781 -21.87207,6.7682 -7.97698,6.61286 -14.1879,14.03065 -24.30117,10.51415 -5.62632,-1.95633 -25.81411,-2.59851 -27.84635,-10.01785 -2.81111,-10.26291 7.06366,-19.23795 -10.16489,-21.67894 -7.27904,-1.03131 4.38093,-22.43325 11.117,-23.40867 10.07979,-1.45962 23.94682,11.44022 23.83159,-9.94307 -0.0442,-8.1838 20.82425,-3.27352 22.03986,7.46679 1.07883,9.53208 35.96178,-9.25666 22.00929,24.763 z"
       sodipodi:nodetypes="ssssssssss" /><path
       id="rect7593-9"
       style="fill:#552200;stroke:#000000;stroke-width:5;stroke-miterlimit:10.43;stroke-dasharray:none;paint-order:stroke fill markers;stop-color:#000000"
       d="m 134.54987,115.09822 h -31.46296 c 5.63149,19.16794 3.90319,35.3935 0,54.25594 11.92916,1.52872 24.7248,7.84554 32.00542,-1.86505 -26.00939,-11.31085 -6.56983,-32.73567 -0.54246,-52.39089 z"
       sodipodi:nodetypes="ccccc" /><path
       id="path7834-3"
       style="fill:url(#radialGradient8840-8);stroke:#000000;stroke-width:5;stroke-miterlimit:10.43;stroke-dasharray:none;paint-order:stroke fill markers;stop-color:#000000"
       d="m 156.49063,85.797271 c 12.35175,33.208459 -24.7318,43.985019 -46.77165,33.839549 -6.48859,-2.98685 -30.761025,-6.34981 -32.066256,-15.16901 C 75.819714,92.082632 92.21781,75.705836 68.508731,78.180098 59.658907,79.103652 76.965793,52.922378 85.205693,52.678475 97.535831,52.31348 112.37996,68.9762 115.2804,44.340562 c 1.11004,-9.428512 30.44547,4.132481 25.44549,11.473873 38.17328,8.889892 21.67439,15.133959 15.76474,29.982836 z"
       sodipodi:nodetypes="cssssscc" /><path
       id="rect7593-9-0"
       style="fill:#552200;stroke:#000000;stroke-width:5;stroke-miterlimit:10.43;stroke-dasharray:none;paint-order:stroke fill markers;stop-color:#000000"
       d="M 87.933172,234.98646 H 61.707184 c 4.694134,17.57096 3.253509,32.44469 0,49.7356 9.943561,1.40136 20.609376,7.19189 26.678159,-1.70966 -21.680161,-10.36848 -5.47629,-30.0083 -0.452171,-48.02594 z"
       sodipodi:nodetypes="ccccc" /><path
       id="path7834-3-8"
       style="fill:url(#radialGradient8840-8-7);stroke:#000000;stroke-width:5;stroke-miterlimit:10.43;paint-order:stroke fill markers;stop-color:#000000;stroke-dasharray:none"
       d="m 83.423371,238.51475 c 5.408567,-2.738 25.640899,-5.82077 26.728869,-13.9052 1.5279,-11.3533 -12.140762,-26.36565 7.62198,-24.09754 7.37678,0.84661 -7.08007,-22.69104 -13.91776,-23.37695 -10.4361,-1.04688 -18.627145,11.02277 -20.029854,-6.99305 -0.674744,-8.66614 -20.19972,-8.58175 -25.436337,10.27411 -1.159957,4.17673 -17.924726,1.90368 -22.795204,6.59143 -19.217592,18.49657 27.077681,25.9518 10.005966,37.30172 -12.881282,7.9219 24.770777,20.11338 37.82234,14.20548 z"
       sodipodi:nodetypes="csssssscc" /></g></svg>
